<svg width="36" height="36" viewBox="0 0 36 36" fill="none" xmlns="http://www.w3.org/2000/svg">
<path d="M29.25 22.5H22.5V20.25H29.25V22.5ZM33.75 31.5H27V29.25H33.75V31.5ZM31.5 27H24.75V24.75H31.5V27Z" fill="#555555"/>
<path d="M19.1288 22.5C19.1203 21.5509 18.8669 20.62 18.3931 19.7975C17.9193 18.975 17.2411 18.2888 16.4243 17.8054L24.7504 3.375L22.8042 2.25L14.2801 17.0168C13.2339 16.7832 12.1459 16.8155 11.1155 17.1109C10.0851 17.4063 9.14518 17.9553 8.38168 18.7076C4.16968 22.77 4.49593 32.2673 4.51168 32.67C4.52331 32.9605 4.64695 33.2352 4.85668 33.4366C5.06641 33.6379 5.34595 33.7502 5.63668 33.75H22.5016C22.7377 33.75 22.9678 33.6757 23.1594 33.5376C23.3509 33.3996 23.4942 33.2048 23.5688 32.9808C23.6435 32.7568 23.6458 32.5149 23.5754 32.2896C23.505 32.0642 23.3654 31.8667 23.1766 31.725C19.1941 28.737 19.1288 22.5607 19.1288 22.5ZM13.4217 19.1216C14.3221 19.1315 15.184 19.4882 15.8282 20.1174C16.4723 20.7467 16.849 21.6001 16.8799 22.5C16.8799 22.5427 16.8822 22.734 16.8991 23.0276L10.2616 20.0756C10.6988 19.7151 11.2033 19.4451 11.7458 19.2813C12.2883 19.1175 12.858 19.0632 13.4217 19.1216ZM17.3817 31.5C16.4825 30.5844 15.9093 29.3985 15.7504 28.125H13.5004C13.581 29.3223 13.955 30.4814 14.5894 31.5H12.0886C11.6257 30.04 11.3442 28.5287 11.2504 27H9.00043C9.07255 28.5241 9.32365 30.0345 9.74856 31.5H6.75043C6.78531 29.4345 7.07668 24.8715 8.77881 21.8779L17.2534 25.6466C17.6597 27.7611 18.5279 29.7598 19.7959 31.5H17.3817Z" fill="#555555"/>
</svg>
