<svg width="36" height="36" viewBox="0 0 36 36" fill="none" xmlns="http://www.w3.org/2000/svg">
<path d="M23.43 31.68C22.5862 32.5227 21.4425 32.996 20.25 32.996C19.0575 32.996 17.9138 32.5227 17.07 31.68L4.575 19.5C3.675 18.675 3 17.445 3 16.125V9C3 7.80653 3.47411 6.66193 4.31802 5.81802C5.16193 4.97411 6.30653 4.5 7.5 4.5H14.625C15.945 4.5 17.175 5.175 18 6.075L30.105 18.645C30.9477 19.4888 31.421 20.6325 31.421 21.825C31.421 23.0175 30.9477 24.1612 30.105 25.005L23.43 31.68ZM22.365 30.615L29.04 23.94C30.21 22.77 30.21 20.865 29.04 19.695L16.665 6.87C16.17 6.3 15.45 6 14.625 6L7.455 5.955C5.805 5.955 4.5 7.35 4.5 9V16.125C4.5 16.95 4.8 17.67 5.37 18.165L18.12 30.615C19.29 31.785 21.195 31.785 22.365 30.615ZM9.75 7.5C10.7446 7.5 11.6984 7.89509 12.4016 8.59835C13.1049 9.30161 13.5 10.2554 13.5 11.25C13.5 12.2446 13.1049 13.1984 12.4016 13.9017C11.6984 14.6049 10.7446 15 9.75 15C8.75544 15 7.80161 14.6049 7.09835 13.9017C6.39509 13.1984 6 12.2446 6 11.25C6 10.2554 6.39509 9.30161 7.09835 8.59835C7.80161 7.89509 8.75544 7.5 9.75 7.5ZM9.75 9C9.15326 9 8.58097 9.23705 8.15901 9.65901C7.73705 10.081 7.5 10.6533 7.5 11.25C7.5 11.8467 7.73705 12.419 8.15901 12.841C8.58097 13.2629 9.15326 13.5 9.75 13.5C10.3467 13.5 10.919 13.2629 11.341 12.841C11.7629 12.419 12 11.8467 12 11.25C12 10.6533 11.7629 10.081 11.341 9.65901C10.919 9.23705 10.3467 9 9.75 9Z" fill="#555555"/>
</svg>
