<svg width="36" height="36" viewBox="0 0 36 36" fill="none" xmlns="http://www.w3.org/2000/svg">
<path d="M22.5 31.5L13.5 28.35L6.525 31.05C6.025 31.25 5.5625 31.194 5.1375 30.882C4.7125 30.57 4.5 30.151 4.5 29.625V8.625C4.5 8.3 4.594 8.0125 4.782 7.7625C4.97 7.5125 5.226 7.325 5.55 7.2L13.5 4.5L22.5 7.65L29.475 4.95C29.975 4.75 30.4375 4.8065 30.8625 5.1195C31.2875 5.4325 31.5 5.851 31.5 6.375V27.375C31.5 27.7 31.4065 27.9875 31.2195 28.2375C31.0325 28.4875 30.776 28.675 30.45 28.8L22.5 31.5ZM21 27.825V10.275L15 8.175V25.725L21 27.825ZM24 27.825L28.5 26.325V8.55L24 10.275V27.825ZM7.5 27.45L12 25.725V8.175L7.5 9.675V27.45Z" fill="#555555"/>
</svg>
