<svg width="36" height="36" viewBox="0 0 36 36" fill="none" xmlns="http://www.w3.org/2000/svg">
<path d="M23.998 26.9972L20.998 23.9972H17.998L15.958 21.9572C13.8728 22.6837 11.6027 22.6808 9.5193 21.9491C7.4359 21.2173 5.6626 19.8 4.48963 17.9291C3.31667 16.0583 2.81352 13.8446 3.06253 11.6505C3.31154 9.45643 4.29797 7.41185 5.86036 5.85141C7.42276 4.29097 9.46857 3.30711 11.663 3.06084C13.8574 2.81457 16.0704 3.32049 17.9398 4.4958C19.8092 5.6711 21.2243 7.44618 21.9534 9.53049C22.6826 11.6148 22.6826 13.8849 21.9535 15.9692L32.998 26.9972V32.9972H26.998L23.998 29.9972V26.9972Z" stroke="#555555" stroke-width="2" stroke-linecap="round" stroke-linejoin="round"/>
<path d="M10.498 11.998C9.66962 11.998 8.99805 11.3265 8.99805 10.498C8.99805 9.66962 9.66962 8.99805 10.498 8.99805C11.3265 8.99805 11.998 9.66962 11.998 10.498C11.998 11.3265 11.3265 11.998 10.498 11.998Z" stroke="#555555" stroke-width="2" stroke-linecap="round" stroke-linejoin="round"/>
</svg>
