<svg width="20" height="21" viewBox="0 0 20 21" fill="none" xmlns="http://www.w3.org/2000/svg">
<path d="M9.9993 14.8952L6.54096 16.9785C6.38819 17.0757 6.22846 17.1174 6.0618 17.1035C5.89513 17.0896 5.7493 17.0341 5.6243 16.9368C5.4993 16.8396 5.40208 16.7182 5.33263 16.5727C5.26319 16.4271 5.2493 16.2638 5.29096 16.0827L6.20763 12.1452L3.14513 9.49935C3.00624 9.37435 2.91958 9.23185 2.88513 9.07185C2.85069 8.91185 2.86096 8.75574 2.91596 8.60352C2.97096 8.45129 3.0543 8.32629 3.16596 8.22852C3.27763 8.13074 3.43041 8.06824 3.6243 8.04102L7.66596 7.68685L9.22846 3.97852C9.29791 3.81185 9.40569 3.68685 9.5518 3.60352C9.69791 3.52018 9.84708 3.47852 9.9993 3.47852C10.1515 3.47852 10.3007 3.52018 10.4468 3.60352C10.5929 3.68685 10.7007 3.81185 10.7701 3.97852L12.3326 7.68685L16.3743 8.04102C16.5687 8.06879 16.7215 8.13129 16.8326 8.22852C16.9437 8.32574 17.0271 8.45074 17.0826 8.60352C17.1382 8.75629 17.1487 8.91268 17.1143 9.07268C17.0799 9.23268 16.9929 9.37491 16.8535 9.49935L13.791 12.1452L14.7076 16.0827C14.7493 16.2632 14.7354 16.4266 14.666 16.5727C14.5965 16.7188 14.4993 16.8402 14.3743 16.9368C14.2493 17.0335 14.1035 17.0891 13.9368 17.1035C13.7701 17.118 13.6104 17.0763 13.4576 16.9785L9.9993 14.8952Z" fill="#555555"/>
</svg>
