<svg width="22" height="22" viewBox="0 0 22 22" fill="none" xmlns="http://www.w3.org/2000/svg">
<path d="M11.0007 10.5423C10.3929 10.5423 9.80997 10.3009 9.3802 9.8711C8.95043 9.44133 8.70898 8.85844 8.70898 8.25065C8.70898 7.64286 8.95043 7.05997 9.3802 6.6302C9.80997 6.20043 10.3929 5.95898 11.0007 5.95898C11.6084 5.95898 12.1913 6.20043 12.6211 6.6302C13.0509 7.05997 13.2923 7.64286 13.2923 8.25065C13.2923 8.5516 13.233 8.8496 13.1179 9.12763C13.0027 9.40567 12.8339 9.6583 12.6211 9.8711C12.4083 10.0839 12.1557 10.2527 11.8776 10.3679C11.5996 10.483 11.3016 10.5423 11.0007 10.5423ZM11.0007 1.83398C9.29884 1.83398 7.66674 2.51002 6.46338 3.71338C5.26002 4.91674 4.58398 6.54885 4.58398 8.25065C4.58398 13.0632 11.0007 20.1673 11.0007 20.1673C11.0007 20.1673 17.4173 13.0632 17.4173 8.25065C17.4173 6.54885 16.7413 4.91674 15.5379 3.71338C14.3346 2.51002 12.7025 1.83398 11.0007 1.83398Z" fill="black"/>
</svg>
