<svg width="58" height="10" viewBox="0 0 58 10" fill="none" xmlns="http://www.w3.org/2000/svg">
<path d="M5 0L6.12257 3.45492H9.75528L6.81636 5.59017L7.93893 9.04508L5 6.90983L2.06107 9.04508L3.18364 5.59017L0.244718 3.45492H3.87743L5 0Z" fill="black"/>
<path d="M17 0L18.1226 3.45492H21.7553L18.8164 5.59017L19.9389 9.04508L17 6.90983L14.0611 9.04508L15.1836 5.59017L12.2447 3.45492H15.8774L17 0Z" fill="black"/>
<path d="M29 0L30.1226 3.45492H33.7553L30.8164 5.59017L31.9389 9.04508L29 6.90983L26.0611 9.04508L27.1836 5.59017L24.2447 3.45492H27.8774L29 0Z" fill="black"/>
<path d="M41 0L42.1226 3.45492H45.7553L42.8164 5.59017L43.9389 9.04508L41 6.90983L38.0611 9.04508L39.1836 5.59017L36.2447 3.45492H39.8774L41 0Z" fill="black"/>
<path d="M53 0L54.1226 3.45492H57.7553L54.8164 5.59017L55.9389 9.04508L53 6.90983L50.0611 9.04508L51.1836 5.59017L48.2447 3.45492H51.8774L53 0Z" fill="black"/>
</svg>
