<svg width="20" height="20" viewBox="0 0 20 20" fill="none" xmlns="http://www.w3.org/2000/svg">
<path d="M10.0009 17.0197C9.64205 17.0197 9.33872 16.8958 9.09094 16.648C8.84316 16.4002 8.71927 16.0969 8.71927 15.738C8.71927 15.3791 8.84316 15.0755 9.09094 14.8272C9.33872 14.5789 9.64205 14.455 10.0009 14.4555C10.3598 14.4561 10.6632 14.58 10.9109 14.8272C11.1587 15.0744 11.2826 15.3778 11.2826 15.7372C11.2826 16.0966 11.1587 16.4002 10.9109 16.648C10.6632 16.8958 10.3598 17.0197 10.0009 17.0197ZM5.2926 12.7922L4.4401 11.9305C5.16344 11.2072 5.99788 10.6405 6.94344 10.2305C7.88899 9.82053 8.90899 9.6158 10.0034 9.61636C11.0979 9.61692 12.117 9.82247 13.0609 10.233C14.0048 10.6436 14.8384 11.2125 15.5618 11.9397L14.7093 12.7922C14.0982 12.1811 13.3898 11.7019 12.5843 11.3547C11.7787 11.0075 10.9176 10.8339 10.0009 10.8339C9.08427 10.8339 8.22316 11.0075 7.4176 11.3547C6.61205 11.7019 5.90372 12.1811 5.2926 12.7922ZM1.75094 9.25053L0.898438 8.39803C2.05899 7.23136 3.41316 6.30914 4.96094 5.63136C6.50872 4.95358 8.18872 4.61553 10.0009 4.61719C11.8132 4.61886 13.4932 4.95747 15.0409 5.63303C16.5887 6.30858 17.9429 7.23053 19.1034 8.39886L18.2509 9.25053C17.1815 8.18108 15.942 7.34442 14.5326 6.74053C13.1232 6.13664 11.6126 5.83442 10.0009 5.83386C8.38927 5.8333 6.87899 6.13553 5.4701 6.74053C4.06122 7.34553 2.82149 8.18219 1.75094 9.25053Z" fill="#555555"/>
</svg>
