<svg width="20" height="20" viewBox="0 0 20 20" fill="none" xmlns="http://www.w3.org/2000/svg">
<path d="M16.25 8.125H18.75V9.375H16.25V8.125ZM14.375 4.74125L16.1425 2.97375L17.0263 3.8575L15.2588 5.625L14.375 4.74125ZM14.375 12.7588L15.2588 11.875L17.0263 13.6425L16.1425 14.5263L14.375 12.7588ZM10.625 1.25H11.875V3.75H10.625V1.25ZM11.25 5C11.0405 5.00126 10.8314 5.02007 10.625 5.05625V6.33875C10.8288 6.28288 11.0388 6.25306 11.25 6.25C11.913 6.25 12.5489 6.51339 13.0178 6.98223C13.4866 7.45107 13.75 8.08696 13.75 8.75C13.75 9.41304 13.4866 10.0489 13.0178 10.5178C12.5489 10.9866 11.913 11.25 11.25 11.25V12.5C12.2446 12.5 13.1984 12.1049 13.9017 11.4017C14.6049 10.6984 15 9.74456 15 8.75C15 7.75544 14.6049 6.80161 13.9017 6.09835C13.1984 5.39509 12.2446 5 11.25 5ZM6.25 12.615V4.375H5V12.615C4.583 12.7624 4.23153 13.0525 4.00773 13.4341C3.78394 13.8156 3.70221 14.2639 3.77701 14.6998C3.8518 15.1358 4.0783 15.5312 4.41647 15.8163C4.75463 16.1014 5.1827 16.2578 5.625 16.2578C6.06731 16.2578 6.49537 16.1014 6.83354 15.8163C7.17171 15.5312 7.39821 15.1358 7.473 14.6998C7.5478 14.2639 7.46607 13.8156 7.24227 13.4341C7.01848 13.0525 6.66701 12.7624 6.25 12.615Z" fill="#555555"/>
<path d="M5.62554 18.75C4.76428 18.751 3.92192 18.4975 3.20426 18.0213C2.48659 17.5451 1.9256 16.8675 1.59174 16.0736C1.25788 15.2797 1.16602 14.4048 1.32771 13.5589C1.4894 12.7129 1.89742 11.9336 2.50054 11.3188V4.375C2.50054 3.5462 2.82978 2.75134 3.41584 2.16529C4.00189 1.57924 4.79674 1.25 5.62554 1.25C6.45435 1.25 7.2492 1.57924 7.83525 2.16529C8.4213 2.75134 8.75054 3.5462 8.75054 4.375V11.3188C9.35366 11.9336 9.76169 12.7129 9.92338 13.5589C10.0851 14.4048 9.99321 15.2797 9.65935 16.0736C9.32549 16.8675 8.7645 17.5451 8.04683 18.0213C7.32916 18.4975 6.48681 18.751 5.62554 18.75ZM5.62554 2.5C5.12842 2.5005 4.65179 2.6982 4.30027 3.04972C3.94874 3.40125 3.75104 3.87787 3.75054 4.375V11.8644L3.54304 12.0513C3.07109 12.4731 2.73837 13.0283 2.58891 13.6434C2.43945 14.2584 2.4803 14.9044 2.70606 15.4958C2.93181 16.0871 3.33183 16.596 3.85316 16.955C4.37449 17.314 4.99256 17.5062 5.62554 17.5062C6.25853 17.5062 6.87659 17.314 7.39792 16.955C7.91926 16.596 8.31927 16.0871 8.54503 15.4958C8.77079 14.9044 8.81164 14.2584 8.66218 13.6434C8.51272 13.0283 8.17999 12.4731 7.70804 12.0513L7.50054 11.8644V4.375C7.50005 3.87787 7.30234 3.40125 6.95082 3.04972C6.5993 2.6982 6.12267 2.5005 5.62554 2.5Z" fill="#555555"/>
</svg>
