<svg width="20" height="20" viewBox="0 0 20 20" fill="none" xmlns="http://www.w3.org/2000/svg">
<path d="M3.84667 15.0007C3.46278 15.0007 3.1425 14.8723 2.88583 14.6157C2.62917 14.359 2.50056 14.0384 2.5 13.654V4.68065C2.5 4.29676 2.62861 3.97648 2.88583 3.71982C3.14306 3.46315 3.46306 3.33454 3.84583 3.33398H16.1542C16.5375 3.33398 16.8575 3.4626 17.1142 3.71982C17.3708 3.97704 17.4994 4.29732 17.5 4.68065V13.6548C17.5 14.0382 17.3714 14.3584 17.1142 14.6157C16.8569 14.8729 16.5369 15.0012 16.1542 15.0007H12.5V15.994C12.5 16.1879 12.4361 16.3484 12.3083 16.4757C12.1806 16.6029 12.02 16.6668 11.8267 16.6673H8.17333C7.98 16.6673 7.81944 16.6034 7.69167 16.4757C7.56389 16.3479 7.5 16.1873 7.5 15.994V15.0007H3.84667ZM3.84667 14.1673H16.1542C16.2819 14.1673 16.3994 14.114 16.5067 14.0073C16.6139 13.9007 16.6672 13.7829 16.6667 13.654V4.68065C16.6667 4.55232 16.6133 4.43454 16.5067 4.32732C16.4 4.2201 16.2825 4.16676 16.1542 4.16732H3.84583C3.71806 4.16732 3.60056 4.22065 3.49333 4.32732C3.38611 4.43398 3.33278 4.55176 3.33333 4.68065V13.6548C3.33333 13.7826 3.38667 13.9001 3.49333 14.0073C3.6 14.1145 3.7175 14.1679 3.84583 14.1673" fill="#555555"/>
</svg>
