<svg width="20" height="20" viewBox="0 0 20 20" fill="none" xmlns="http://www.w3.org/2000/svg">
<path d="M15.8327 16.6673H4.16602V17.5007C4.16602 17.7217 4.07822 17.9336 3.92194 18.0899C3.76566 18.2462 3.5537 18.334 3.33268 18.334H2.49935C2.27834 18.334 2.06637 18.2462 1.91009 18.0899C1.75381 17.9336 1.66602 17.7217 1.66602 17.5007V9.16732L3.73268 4.34398C3.86128 4.04398 4.07515 3.78835 4.34773 3.6088C4.62031 3.42925 4.93961 3.33369 5.26602 3.33399H14.7327C15.0588 3.33402 15.3777 3.42973 15.65 3.60926C15.9223 3.78879 16.1359 4.04425 16.2643 4.34398L18.3327 9.16732V17.5007C18.3327 17.7217 18.2449 17.9336 18.0886 18.0899C17.9323 18.2462 17.7204 18.334 17.4993 18.334H16.666C16.445 18.334 16.233 18.2462 16.0768 18.0899C15.9205 17.9336 15.8327 17.7217 15.8327 17.5007V16.6673ZM16.666 10.834H3.33268V15.0007H16.666V10.834ZM3.47935 9.16732H16.5193L14.7335 5.00065H5.26602L3.47935 9.16732ZM5.41602 14.1673C5.08449 14.1673 4.76655 14.0356 4.53213 13.8012C4.29771 13.5668 4.16602 13.2488 4.16602 12.9173C4.16602 12.5858 4.29771 12.2679 4.53213 12.0334C4.76655 11.799 5.08449 11.6673 5.41602 11.6673C5.74754 11.6673 6.06548 11.799 6.2999 12.0334C6.53432 12.2679 6.66602 12.5858 6.66602 12.9173C6.66602 13.2488 6.53432 13.5668 6.2999 13.8012C6.06548 14.0356 5.74754 14.1673 5.41602 14.1673ZM14.5827 14.1673C14.2512 14.1673 13.9332 14.0356 13.6988 13.8012C13.4644 13.5668 13.3327 13.2488 13.3327 12.9173C13.3327 12.5858 13.4644 12.2679 13.6988 12.0334C13.9332 11.799 14.2512 11.6673 14.5827 11.6673C14.9142 11.6673 15.2321 11.799 15.4666 12.0334C15.701 12.2679 15.8327 12.5858 15.8327 12.9173C15.8327 13.2488 15.701 13.5668 15.4666 13.8012C15.2321 14.0356 14.9142 14.1673 14.5827 14.1673Z" fill="#555555"/>
</svg>
