<svg width="20" height="20" viewBox="0 0 20 20" fill="none" xmlns="http://www.w3.org/2000/svg">
<path d="M5.00065 18.334C4.54232 18.334 4.1501 18.1709 3.82398 17.8448C3.49787 17.5187 3.33454 17.1262 3.33398 16.6673V8.33399C3.33398 7.87565 3.49732 7.48343 3.82398 7.15732C4.15065 6.83121 4.54287 6.66787 5.00065 6.66732H5.83398V5.00065C5.83398 3.84787 6.24037 2.86537 7.05315 2.05315C7.86593 1.24093 8.84843 0.83454 10.0007 0.833985C11.1529 0.833429 12.1357 1.23982 12.949 2.05315C13.7623 2.86649 14.1684 3.84898 14.1673 5.00065V6.66732H15.0007C15.459 6.66732 15.8515 6.83065 16.1782 7.15732C16.5048 7.48399 16.6679 7.87621 16.6673 8.33399V16.6673C16.6673 17.1257 16.5043 17.5182 16.1782 17.8448C15.852 18.1715 15.4595 18.3345 15.0007 18.334H5.00065ZM5.00065 16.6673H15.0007V8.33399H5.00065V16.6673ZM10.0007 14.1673C10.459 14.1673 10.8515 14.0043 11.1782 13.6782C11.5048 13.352 11.6679 12.9595 11.6673 12.5007C11.6668 12.0418 11.5037 11.6495 11.1782 11.324C10.8526 10.9984 10.4601 10.8351 10.0007 10.834C9.54121 10.8329 9.14898 10.9962 8.82398 11.324C8.49898 11.6518 8.33565 12.044 8.33398 12.5007C8.33232 12.9573 8.49565 13.3498 8.82398 13.6782C9.15232 14.0065 9.54454 14.1695 10.0007 14.1673ZM7.50065 6.66732H12.5007V5.00065C12.5007 4.30621 12.2576 3.71593 11.7715 3.22982C11.2854 2.74371 10.6951 2.50065 10.0007 2.50065C9.30621 2.50065 8.71593 2.74371 8.22982 3.22982C7.74371 3.71593 7.50065 4.30621 7.50065 5.00065V6.66732Z" fill="#555555"/>
</svg>
