<svg width="20" height="20" viewBox="0 0 20 20" fill="none" xmlns="http://www.w3.org/2000/svg">
<path d="M16.0417 13.7708C15.8194 13.7014 15.6597 13.5661 15.5625 13.365C15.4653 13.1639 15.4514 12.9589 15.5208 12.75C15.6319 12.4306 15.7119 12.1217 15.7608 11.8233C15.8097 11.525 15.8339 11.2228 15.8333 10.9167C15.8333 9.27778 15.2675 7.88194 14.1358 6.72917C13.0042 5.57639 11.6256 5 10 5C9.63889 5 9.30917 5.02083 9.01083 5.0625C8.7125 5.10417 8.43111 5.17361 8.16667 5.27083C7.97222 5.34028 7.78139 5.32306 7.59417 5.21917C7.40694 5.11528 7.27833 4.95194 7.20833 4.72917C7.13833 4.50639 7.15917 4.29111 7.27083 4.08333C7.3825 3.87556 7.55611 3.73667 7.79167 3.66667C8.13889 3.55556 8.49667 3.47222 8.865 3.41667C9.23333 3.36111 9.61167 3.33333 10 3.33333C11.0556 3.33333 12.0383 3.53139 12.9483 3.9275C13.8583 4.32361 14.65 4.86528 15.3233 5.5525C15.9967 6.23972 16.5278 7.04528 16.9167 7.96917C17.3056 8.89306 17.5 9.87556 17.5 10.9167C17.5 11.2778 17.4689 11.6458 17.4067 12.0208C17.3444 12.3958 17.2506 12.7778 17.125 13.1667C17.0556 13.4028 16.9131 13.58 16.6975 13.6983C16.4819 13.8167 16.2633 13.8408 16.0417 13.7708ZM14.75 3.70833C14.5972 3.55556 14.5208 3.36111 14.5208 3.125C14.5208 2.88889 14.5972 2.69444 14.75 2.54167C14.9028 2.38889 15.0972 2.3125 15.3333 2.3125C15.5694 2.3125 15.7639 2.38889 15.9167 2.54167L18.2917 4.91667C18.4444 5.06944 18.5208 5.26389 18.5208 5.5C18.5208 5.73611 18.4444 5.93056 18.2917 6.08333C18.1389 6.23611 17.9444 6.3125 17.7083 6.3125C17.4722 6.3125 17.2778 6.23611 17.125 6.08333L14.75 3.70833ZM10 18.3333C8.97222 18.3333 8.00333 18.1389 7.09333 17.75C6.18333 17.3611 5.38833 16.8333 4.70833 16.1667C4.02833 15.5 3.49028 14.7153 3.09417 13.8125C2.69806 12.9097 2.5 11.9444 2.5 10.9167C2.5 10.0556 2.62861 9.24667 2.88583 8.49C3.14306 7.73333 3.51444 7.04222 4 6.41667L3.29167 5.70833L2.875 6.125C2.72222 6.27778 2.52778 6.35417 2.29167 6.35417C2.05556 6.35417 1.86111 6.27778 1.70833 6.125C1.55556 5.97222 1.47917 5.77778 1.47917 5.54167C1.47917 5.30556 1.55556 5.11111 1.70833 4.95833L2.125 4.54167L1.16667 3.58333C1.01389 3.43056 0.9375 3.23611 0.9375 3C0.9375 2.76389 1.01389 2.56944 1.16667 2.41667C1.31944 2.26389 1.51389 2.1875 1.75 2.1875C1.98611 2.1875 2.18056 2.26389 2.33333 2.41667L17.6667 17.75C17.8194 17.9028 17.8958 18.0972 17.8958 18.3333C17.8958 18.5694 17.8194 18.7639 17.6667 18.9167C17.5139 19.0694 17.3194 19.1458 17.0833 19.1458C16.8472 19.1458 16.6528 19.0694 16.5 18.9167L14.4583 16.875C13.8333 17.3333 13.1425 17.6911 12.3858 17.9483C11.6292 18.2056 10.8339 18.3339 10 18.3333ZM10 16.6875C10.5833 16.6875 11.1528 16.5972 11.7083 16.4167C12.2639 16.2361 12.7778 15.9861 13.25 15.6667L5.16667 7.625C4.84722 8.11111 4.60083 8.63556 4.4275 9.19833C4.25417 9.76111 4.16722 10.3339 4.16667 10.9167C4.16667 12.5278 4.73611 13.8925 5.875 15.0108C7.01389 16.1292 8.38889 16.6881 10 16.6875Z" fill="#555555"/>
</svg>
