<svg width="20" height="20" viewBox="0 0 20 20" fill="none" xmlns="http://www.w3.org/2000/svg">
<path d="M6.25078 4.66602L4.16745 5.83268L5.33411 3.74935L4.16745 1.66602L6.25078 2.83268L8.33411 1.66602L7.16745 3.74935L8.33411 5.83268L6.25078 4.66602ZM16.2508 12.8327L18.3341 11.666L17.1674 13.7493L18.3341 15.8327L16.2508 14.666L14.1674 15.8327L15.3341 13.7493L14.1674 11.666L16.2508 12.8327ZM18.3341 1.66602L17.1674 3.74935L18.3341 5.83268L16.2508 4.66602L14.1674 5.83268L15.3341 3.74935L14.1674 1.66602L16.2508 2.83268L18.3341 1.66602ZM11.1174 10.6493L13.1508 8.61602L11.3841 6.84935L9.35078 8.88268L11.1174 10.6493ZM11.9758 6.07435L13.9258 8.02435C14.2508 8.33268 14.2508 8.87435 13.9258 9.19935L4.20078 18.9243C3.87578 19.2493 3.33411 19.2493 3.02578 18.9243L1.07578 16.9743C0.750781 16.666 0.750781 16.1243 1.07578 15.7993L10.8008 6.07435C11.1258 5.74935 11.6674 5.74935 11.9758 6.07435Z" fill="#555555"/>
</svg>
