<svg width="20" height="20" viewBox="0 0 20 20" fill="none" xmlns="http://www.w3.org/2000/svg">
<path fill-rule="evenodd" clip-rule="evenodd" d="M6.04235 5.52559V4.55059C6.04247 4.20144 6.16784 3.86393 6.39569 3.59937C6.62354 3.33482 6.93875 3.1608 7.28402 3.10892L8.30068 2.95642C9.42776 2.78796 10.5736 2.78796 11.7007 2.95642L12.7174 3.10892C13.0626 3.1608 13.3778 3.33482 13.6057 3.59937C13.8335 3.86393 13.9589 4.20144 13.959 4.55059V5.52559L15.3874 5.64059C15.9188 5.68352 16.4204 5.9034 16.8122 6.26506C17.2039 6.62672 17.463 7.10928 17.5482 7.63559C17.9363 10.0294 17.9363 12.4701 17.5482 14.8639C17.463 15.3902 17.2039 15.8728 16.8122 16.2345C16.4204 16.5961 15.9188 16.816 15.3874 16.8589L13.8274 16.9839C11.2804 17.1898 8.72098 17.1898 6.17402 16.9839L4.61402 16.8589C4.0826 16.816 3.58092 16.5961 3.1892 16.2345C2.79747 15.8728 2.53832 15.3902 2.45319 14.8639C2.06508 12.4701 2.06508 10.0294 2.45319 7.63559C2.53849 7.10944 2.79772 6.62706 3.18943 6.26557C3.58114 5.90407 4.08272 5.68431 4.61402 5.64142L6.04235 5.52559ZM8.48652 4.19226C9.49039 4.04232 10.511 4.04232 11.5149 4.19226L12.5315 4.34476C12.5808 4.35214 12.6259 4.37697 12.6585 4.41474C12.691 4.45251 12.709 4.50072 12.709 4.55059V5.43809C10.9049 5.33506 9.09644 5.33506 7.29235 5.43809V4.54976C7.2924 4.49988 7.31034 4.45168 7.34291 4.41391C7.37548 4.37614 7.42053 4.35131 7.46985 4.34392L8.48652 4.19226ZM6.27485 6.76059C8.75485 6.56059 11.2465 6.56059 13.7265 6.76059L15.2865 6.88726C15.5393 6.90748 15.778 7.01191 15.9645 7.18384C16.1509 7.35577 16.2743 7.58526 16.3149 7.83559C16.3665 8.15615 16.411 8.47781 16.4482 8.80059C14.4423 9.78791 12.2364 10.3014 10.0007 10.3014C7.76496 10.3014 5.5591 9.78791 3.55319 8.80059C3.58985 8.47837 3.6343 8.1567 3.68652 7.83559C3.72711 7.58526 3.85049 7.35577 4.03692 7.18384C4.22335 7.01191 4.46206 6.90748 4.71485 6.88726L6.27485 6.76059ZM3.44152 10.1306C5.50142 11.067 7.73794 11.5515 10.0007 11.5515C12.2634 11.5515 14.4999 11.067 16.5599 10.1306C16.6397 11.6461 16.5575 13.1658 16.3149 14.6639C16.2744 14.9144 16.1511 15.1441 15.9647 15.3162C15.7782 15.4883 15.5394 15.5928 15.2865 15.6131L13.7265 15.7381C11.2465 15.9381 8.75485 15.9381 6.27485 15.7381L4.71485 15.6131C4.46194 15.5928 4.22313 15.4883 4.03669 15.3162C3.85024 15.1441 3.72694 14.9144 3.68652 14.6639C3.44402 13.1639 3.36152 11.6439 3.44152 10.1306Z" fill="#555555"/>
</svg>
