<svg width="20" height="20" viewBox="0 0 20 20" fill="none" xmlns="http://www.w3.org/2000/svg">
<g clip-path="url(#clip0_2244_1868)">
<path d="M0.833984 18.334C0.833984 18.784 1.20898 19.1673 1.66732 19.1673H12.5007C12.9673 19.1673 13.334 18.784 13.334 18.334V17.5007H0.833984V18.334ZM7.08398 7.50065C3.95898 7.50065 0.833984 9.16732 0.833984 12.5007H13.334C13.334 9.16732 10.209 7.50065 7.08398 7.50065ZM3.01732 10.834C3.94232 9.54232 5.90898 9.16732 7.08398 9.16732C8.25898 9.16732 10.2257 9.54232 11.1507 10.834H3.01732ZM0.833984 14.1673H13.334V15.834H0.833984V14.1673ZM15.0007 4.16732V0.833984H13.334V4.16732H9.16732L9.35898 5.83398H17.3257L16.159 17.5007H15.0007V19.1673H16.434C17.134 19.1673 17.709 18.6257 17.7923 17.9423L19.1673 4.16732H15.0007Z" fill="#555555"/>
</g>
<defs>
<clipPath id="clip0_2244_1868">
<rect width="20" height="20" fill="white"/>
</clipPath>
</defs>
</svg>
