<svg width="30" height="30" viewBox="0 0 30 30" fill="none" xmlns="http://www.w3.org/2000/svg">
<rect width="30" height="30" rx="15" fill="#E51D51"/>
<path fill-rule="evenodd" clip-rule="evenodd" d="M14.915 6.10497C15.2439 5.98276 15.6032 5.96683 15.9417 6.05945L16.085 6.10497L21.9183 8.27778C22.2141 8.38794 22.4723 8.57933 22.6627 8.82963C22.8532 9.07994 22.9682 9.37886 22.9942 9.69155L23 9.82813V14.2673C23 15.6086 22.6354 16.925 21.9447 18.0775C21.254 19.2301 20.2628 20.176 19.0758 20.8155L18.8542 20.9306L16.0592 22.3187C15.9053 22.395 15.7372 22.4389 15.5654 22.4478C15.3936 22.4566 15.2218 22.4301 15.0608 22.37L14.9408 22.3187L12.1458 20.9306C10.938 20.3307 9.91565 19.418 9.18667 18.2889C8.45769 17.1598 8.04915 15.8562 8.00417 14.5156L8 14.2673V9.82813C8 9.51452 8.08969 9.20737 8.25861 8.94243C8.42753 8.67748 8.66875 8.46565 8.95417 8.33158L9.08167 8.27778L14.915 6.10497ZM18.3608 11.4306L14.5292 15.2366L13.0558 13.7731C12.8995 13.6179 12.6874 13.5308 12.4664 13.5308C12.2453 13.5309 12.0333 13.6182 11.8771 13.7735C11.7208 13.9288 11.6331 14.1395 11.6332 14.359C11.6332 14.5786 11.7211 14.7892 11.8775 14.9444L13.8808 16.9342C13.966 17.0188 14.067 17.0859 14.1783 17.1317C14.2895 17.1775 14.4088 17.2011 14.5292 17.2011C14.6496 17.2011 14.7688 17.1775 14.8801 17.1317C14.9913 17.0859 15.0924 17.0188 15.1775 16.9342L19.5392 12.601C19.6188 12.5247 19.6822 12.4334 19.7259 12.3324C19.7696 12.2314 19.7926 12.1228 19.7935 12.0129C19.7945 11.903 19.7734 11.794 19.7315 11.6922C19.6896 11.5905 19.6277 11.4981 19.5495 11.4204C19.4713 11.3426 19.3782 11.2812 19.2758 11.2396C19.1734 11.1979 19.0636 11.177 18.953 11.178C18.8423 11.1789 18.733 11.2017 18.6313 11.2451C18.5297 11.2885 18.4377 11.3516 18.3608 11.4306Z" fill="white"/>
</svg>
